<svg width="15" height="15" viewBox="0 0 15 15" fill="#EEF1F4" xmlns="http://www.w3.org/2000/svg">
<path fill-rule="evenodd" clip-rule="evenodd" d="M7.16123 6C7.9752 6 8.75584 5.68393 9.33141 5.12132C9.90698 4.55871 10.2303 3.79565 10.2303 3C10.2303 2.20435 9.90698 1.44129 9.33141 0.87868C8.75584 0.316071 7.9752 0 7.16123 0C6.34725 0 5.56662 0.316071 4.99105 0.87868C4.41548 1.44129 4.09213 2.20435 4.09213 3C4.09213 3.79565 4.41548 4.55871 4.99105 5.12132C5.56662 5.68393 6.34725 6 7.16123 6V6ZM0 15C-1.40134e-08 14.0807 0.185231 13.1705 0.545116 12.3212C0.905001 11.4719 1.43249 10.7003 2.09747 10.0503C2.76246 9.40024 3.5519 8.88463 4.42074 8.53284C5.28958 8.18106 6.2208 8 7.16123 8C8.10165 8 9.03287 8.18106 9.90171 8.53284C10.7706 8.88463 11.56 9.40024 12.225 10.0503C12.89 10.7003 13.4175 11.4719 13.7773 12.3212C14.1372 13.1705 14.3225 14.0807 14.3225 15H0Z" fill=""/>
</svg>
