<svg width="12" height="9" viewBox="0 0 12 9" fill="none" xmlns="http://www.w3.org/2000/svg">
<g clip-path="url(#clip0_25_4)">
<path d="M4.00029 6.60005L9.90029 0.700048C10.0836 0.516715 10.3169 0.425049 10.6002 0.425049C10.8836 0.425049 11.1169 0.516715 11.3002 0.700048C11.4836 0.883382 11.5752 1.11671 11.5752 1.40005C11.5752 1.68338 11.4836 1.91672 11.3002 2.10005L4.70029 8.70005C4.50029 8.90005 4.26696 9.00005 4.00029 9.00005C3.73362 9.00005 3.50029 8.90005 3.30029 8.70005L0.700292 6.10005C0.516959 5.91672 0.425293 5.68338 0.425293 5.40005C0.425293 5.11671 0.516959 4.88338 0.700292 4.70005C0.883626 4.51672 1.11696 4.42505 1.40029 4.42505C1.68362 4.42505 1.91696 4.51672 2.10029 4.70005L4.00029 6.60005Z" fill="#594E38"/>
</g>
<defs>
<clipPath id="clip0_25_4">
<rect width="12" height="9" fill="white"/>
</clipPath>
</defs>
</svg>
