<svg width="17" height="12" viewBox="0 0 17 12" fill="none" xmlns="http://www.w3.org/2000/svg">
<path d="M4.25716 10.9001C5.81934 10.9001 7.08573 9.63367 7.08573 8.07149C7.08573 6.50931 5.81934 5.24292 4.25716 5.24292C2.69498 5.24292 1.42859 6.50931 1.42859 8.07149C1.42859 9.63367 2.69498 10.9001 4.25716 10.9001Z" stroke="white" stroke-width="2" stroke-linecap="round" stroke-linejoin="round"/>
<path d="M12.7429 10.9001C14.3051 10.9001 15.5714 9.63367 15.5714 8.07149C15.5714 6.50931 14.3051 5.24292 12.7429 5.24292C11.1807 5.24292 9.91431 6.50931 9.91431 8.07149C9.91431 9.63367 11.1807 10.9001 12.7429 10.9001Z" stroke="white" stroke-width="2" stroke-linecap="round" stroke-linejoin="round"/>
<path d="M9.91437 8.07143C9.91437 7.69634 9.76536 7.33661 9.50013 7.07138C9.2349 6.80615 8.87518 6.65714 8.50008 6.65714C8.12499 6.65714 7.76526 6.80615 7.50003 7.07138C7.2348 7.33661 7.0858 7.69634 7.0858 8.07143M1.78223 6.65714L3.55008 2.41429C4.04508 1.495 4.54008 1 5.67151 1M15.2179 6.65714L13.4501 2.41429C12.9551 1.495 12.3894 1 11.3287 1" stroke="white" stroke-width="2" stroke-linecap="round" stroke-linejoin="round"/>
</svg>
