<svg width="46" height="46" viewBox="0 0 46 46" fill="none" xmlns="http://www.w3.org/2000/svg">
<path d="M25.2222 31.8889H23V23H20.7778M23 14.1111H23.0222M43 23C43 25.6264 42.4827 28.2272 41.4776 30.6537C40.4725 33.0802 38.9993 35.285 37.1421 37.1421C35.285 38.9993 33.0802 40.4725 30.6537 41.4776C28.2272 42.4827 25.6264 43 23 43C20.3736 43 17.7728 42.4827 15.3463 41.4776C12.9198 40.4725 10.715 38.9993 8.85786 37.1421C7.00069 35.285 5.5275 33.0802 4.52241 30.6537C3.51732 28.2272 3 25.6264 3 23C3 17.6957 5.10714 12.6086 8.85786 8.85786C12.6086 5.10714 17.6957 3 23 3C28.3043 3 33.3914 5.10714 37.1421 8.85786C40.8929 12.6086 43 17.6957 43 23Z" stroke="#594E38" stroke-width="5" stroke-linecap="round" stroke-linejoin="round"/>
</svg>
