<svg width="47" height="61" viewBox="0 0 47 61" fill="none" xmlns="http://www.w3.org/2000/svg">
<path d="M14.7143 9.11111H8.85714C7.30373 9.11111 5.81394 9.75496 4.71552 10.901C3.61709 12.0471 3 13.6015 3 15.2222V51.8889C3 53.5097 3.61709 55.064 4.71552 56.2101C5.81394 57.3562 7.30373 58 8.85714 58H38.1429C39.6963 58 41.1861 57.3562 42.2845 56.2101C43.3829 55.064 44 53.5097 44 51.8889V15.2222C44 13.6015 43.3829 12.0471 42.2845 10.901C41.1861 9.75496 39.6963 9.11111 38.1429 9.11111H32.2857M14.7143 9.11111C14.7143 10.7319 15.3314 12.2863 16.4298 13.4323C17.5282 14.5784 19.018 15.2222 20.5714 15.2222H26.4286C27.982 15.2222 29.4718 14.5784 30.5702 13.4323C31.6686 12.2863 32.2857 10.7319 32.2857 9.11111M14.7143 9.11111C14.7143 7.49034 15.3314 5.93596 16.4298 4.7899C17.5282 3.64385 19.018 3 20.5714 3H26.4286C27.982 3 29.4718 3.64385 30.5702 4.7899C31.6686 5.93596 32.2857 7.49034 32.2857 9.11111M23.5 30.5H32.2857M23.5 42.7222H32.2857M14.7143 30.5H14.7436M14.7143 42.7222H14.7436" stroke="#594E38" stroke-width="6" stroke-linecap="round" stroke-linejoin="round"/>
</svg>
