<svg width="52" height="52" viewBox="0 0 52 52" fill="none" xmlns="http://www.w3.org/2000/svg">
<path d="M49 49L33.6667 33.6667M38.7778 20.8889C38.7778 23.2381 38.3151 25.5643 37.4161 27.7347C36.5171 29.9051 35.1994 31.8771 33.5382 33.5382C31.8771 35.1994 29.9051 36.5171 27.7347 37.4161C25.5643 38.3151 23.2381 38.7778 20.8889 38.7778C18.5397 38.7778 16.2135 38.3151 14.0431 37.4161C11.8727 36.5171 9.90067 35.1994 8.23953 33.5382C6.5784 31.8771 5.26071 29.9051 4.36171 27.7347C3.46271 25.5643 3 23.2381 3 20.8889C3 16.1445 4.88472 11.5944 8.23953 8.23953C11.5944 4.88472 16.1445 3 20.8889 3C25.6333 3 30.1834 4.88472 33.5382 8.23953C36.8931 11.5944 38.7778 16.1445 38.7778 20.8889Z" stroke="#594E38" stroke-width="6" stroke-linecap="round" stroke-linejoin="round"/>
</svg>
